<svg id="visual" viewBox="0 0 2160 1440" width="2160" height="1440" xmlns="http://www.w3.org/2000/svg" xmlns:xlink="http://www.w3.org/1999/xlink" version="1.1"><rect x="0" y="0" width="2160" height="1440" fill="#140021"></rect><path d="M0 1010L216 1010L216 971L432 971L432 978L648 978L648 1015L864 1015L864 1050L1080 1050L1080 1009L1296 1009L1296 953L1512 953L1512 948L1728 948L1728 989L1944 989L1944 974L2160 974L2160 970L2160 1441L2160 1441L1944 1441L1944 1441L1728 1441L1728 1441L1512 1441L1512 1441L1296 1441L1296 1441L1080 1441L1080 1441L864 1441L864 1441L648 1441L648 1441L432 1441L432 1441L216 1441L216 1441L0 1441Z" fill="#9900ff"></path><path d="M0 1118L216 1118L216 1044L432 1044L432 1060L648 1060L648 1116L864 1116L864 1047L1080 1047L1080 1088L1296 1088L1296 1075L1512 1075L1512 1051L1728 1051L1728 1082L1944 1082L1944 1115L2160 1115L2160 1057L2160 1441L2160 1441L1944 1441L1944 1441L1728 1441L1728 1441L1512 1441L1512 1441L1296 1441L1296 1441L1080 1441L1080 1441L864 1441L864 1441L648 1441L648 1441L432 1441L432 1441L216 1441L216 1441L0 1441Z" fill="#8800e2"></path><path d="M0 1184L216 1184L216 1149L432 1149L432 1132L648 1132L648 1132L864 1132L864 1161L1080 1161L1080 1171L1296 1171L1296 1169L1512 1169L1512 1200L1728 1200L1728 1173L1944 1173L1944 1204L2160 1204L2160 1192L2160 1441L2160 1441L1944 1441L1944 1441L1728 1441L1728 1441L1512 1441L1512 1441L1296 1441L1296 1441L1080 1441L1080 1441L864 1441L864 1441L648 1441L648 1441L432 1441L432 1441L216 1441L216 1441L0 1441Z" fill="#7700c6"></path><path d="M0 1228L216 1228L216 1247L432 1247L432 1237L648 1237L648 1295L864 1295L864 1253L1080 1253L1080 1220L1296 1220L1296 1228L1512 1228L1512 1259L1728 1259L1728 1264L1944 1264L1944 1286L2160 1286L2160 1288L2160 1441L2160 1441L1944 1441L1944 1441L1728 1441L1728 1441L1512 1441L1512 1441L1296 1441L1296 1441L1080 1441L1080 1441L864 1441L864 1441L648 1441L648 1441L432 1441L432 1441L216 1441L216 1441L0 1441Z" fill="#6600ab"></path><path d="M0 1368L216 1368L216 1332L432 1332L432 1372L648 1372L648 1375L864 1375L864 1332L1080 1332L1080 1363L1296 1363L1296 1374L1512 1374L1512 1332L1728 1332L1728 1337L1944 1337L1944 1359L2160 1359L2160 1305L2160 1441L2160 1441L1944 1441L1944 1441L1728 1441L1728 1441L1512 1441L1512 1441L1296 1441L1296 1441L1080 1441L1080 1441L864 1441L864 1441L648 1441L648 1441L432 1441L432 1441L216 1441L216 1441L0 1441Z" fill="#560090"></path></svg>